<svg width="123" height="27" viewBox="0 0 123 27" fill="none" xmlns="http://www.w3.org/2000/svg">
<path d="M8.496 4.76H0.144V0.799998H21.528V4.76H13.176V26H8.496V4.76ZM42.8963 12.896C44.2883 13.352 45.3923 14.12 46.2083 15.2C47.0243 16.256 47.4323 17.576 47.4323 19.16C47.4323 21.344 46.5923 23.036 44.9123 24.236C43.2323 25.412 40.7843 26 37.5683 26H25.0403V0.799998H36.8483C39.8243 0.799998 42.1163 1.388 43.7243 2.564C45.3323 3.716 46.1363 5.312 46.1363 7.352C46.1363 8.6 45.8483 9.704 45.2723 10.664C44.6963 11.624 43.9043 12.368 42.8963 12.896ZM29.7203 4.472V11.42H36.3443C37.9763 11.42 39.2243 11.132 40.0883 10.556C40.9763 9.956 41.4203 9.092 41.4203 7.964C41.4203 6.812 40.9763 5.948 40.0883 5.372C39.2243 4.772 37.9763 4.472 36.3443 4.472H29.7203ZM37.2803 22.328C40.9043 22.328 42.7163 21.116 42.7163 18.692C42.7163 16.268 40.9043 15.056 37.2803 15.056H29.7203V22.328H37.2803ZM64.199 26.36C61.631 26.36 59.315 25.808 57.251 24.704C55.187 23.576 53.567 22.028 52.391 20.06C51.215 18.068 50.627 15.848 50.627 13.4C50.627 10.952 51.215 8.744 52.391 6.776C53.567 4.784 55.187 3.236 57.251 2.132C59.315 1.004 61.631 0.439999 64.199 0.439999C66.767 0.439999 69.083 1.004 71.147 2.132C73.211 3.236 74.831 4.772 76.007 6.74C77.183 8.708 77.771 10.928 77.771 13.4C77.771 15.872 77.183 18.092 76.007 20.06C74.831 22.028 73.211 23.576 71.147 24.704C69.083 25.808 66.767 26.36 64.199 26.36ZM64.199 22.256C65.879 22.256 67.391 21.884 68.735 21.14C70.079 20.372 71.135 19.316 71.903 17.972C72.671 16.604 73.055 15.08 73.055 13.4C73.055 11.72 72.671 10.208 71.903 8.864C71.135 7.496 70.079 6.44 68.735 5.696C67.391 4.928 65.879 4.544 64.199 4.544C62.519 4.544 61.007 4.928 59.663 5.696C58.319 6.44 57.263 7.496 56.495 8.864C55.727 10.208 55.343 11.72 55.343 13.4C55.343 15.08 55.727 16.604 56.495 17.972C57.263 19.316 58.319 20.372 59.663 21.14C61.007 21.884 62.519 22.256 64.199 22.256Z" fill="#BABABA"/>
<path d="M87.8437 4.76H79.4917V0.799998H100.876V4.76H92.5237V26H87.8437V4.76ZM111.954 26.36C110.01 26.36 108.126 26.084 106.302 25.532C104.502 24.98 103.074 24.248 102.018 23.336L103.638 19.7C104.67 20.516 105.93 21.188 107.418 21.716C108.93 22.22 110.442 22.472 111.954 22.472C113.826 22.472 115.218 22.172 116.13 21.572C117.066 20.972 117.534 20.18 117.534 19.196C117.534 18.476 117.27 17.888 116.742 17.432C116.238 16.952 115.59 16.58 114.798 16.316C114.006 16.052 112.926 15.752 111.558 15.416C109.638 14.96 108.078 14.504 106.878 14.048C105.702 13.592 104.682 12.884 103.818 11.924C102.978 10.94 102.558 9.62 102.558 7.964C102.558 6.572 102.93 5.312 103.674 4.184C104.442 3.032 105.582 2.12 107.094 1.448C108.63 0.775999 110.502 0.439999 112.71 0.439999C114.246 0.439999 115.758 0.631999 117.246 1.016C118.734 1.4 120.018 1.952 121.098 2.672L119.622 6.308C118.518 5.66 117.366 5.168 116.166 4.832C114.966 4.496 113.802 4.328 112.674 4.328C110.826 4.328 109.446 4.64 108.534 5.264C107.646 5.888 107.202 6.716 107.202 7.748C107.202 8.468 107.454 9.056 107.958 9.512C108.486 9.968 109.146 10.328 109.938 10.592C110.73 10.856 111.81 11.156 113.178 11.492C115.05 11.924 116.586 12.38 117.786 12.86C118.986 13.316 120.006 14.024 120.846 14.984C121.71 15.944 122.142 17.24 122.142 18.872C122.142 20.264 121.758 21.524 120.99 22.652C120.246 23.78 119.106 24.68 117.57 25.352C116.034 26.024 114.162 26.36 111.954 26.36Z" fill="black"/>
</svg>
